<mxfile host="app.diagrams.net" agent="Mozilla/5.0 (Windows NT 10.0; Win64; x64) AppleWebKit/537.36 (KHTML, like Gecko) Chrome/140.0.0.0 Safari/537.36 Edg/140.0.0.0" version="28.2.5">
  <diagram id="-6-OKpFeJgZljXDTQCBE" name="ページ1">
    <mxGraphModel dx="1565" dy="708" grid="1" gridSize="10" guides="1" tooltips="1" connect="1" arrows="1" fold="1" page="1" pageScale="1" pageWidth="827" pageHeight="1169" math="0" shadow="0">
      <root>
        <mxCell id="0" />
        <mxCell id="1" parent="0" />
        <mxCell id="DuBBFkumvUSzoL5AuAYB-2" value="事務職員" style="shape=umlActor;verticalLabelPosition=bottom;verticalAlign=top;html=1;outlineConnect=0;" vertex="1" parent="1">
          <mxGeometry x="24" y="10" width="30" height="60" as="geometry" />
        </mxCell>
        <mxCell id="DuBBFkumvUSzoL5AuAYB-3" value="メニュー画面" style="shape=umlBoundary;whiteSpace=wrap;html=1;fillColor=#E6FFCC;" vertex="1" parent="1">
          <mxGeometry x="90" y="20.5" width="70" height="60" as="geometry" />
        </mxCell>
        <mxCell id="DuBBFkumvUSzoL5AuAYB-6" value="" style="endArrow=none;dashed=1;html=1;rounded=0;" edge="1" parent="1">
          <mxGeometry width="50" height="50" relative="1" as="geometry">
            <mxPoint x="39" y="550" as="sourcePoint" />
            <mxPoint x="39" y="100" as="targetPoint" />
          </mxGeometry>
        </mxCell>
        <mxCell id="DuBBFkumvUSzoL5AuAYB-7" value="" style="endArrow=classic;html=1;rounded=0;" edge="1" parent="1">
          <mxGeometry width="50" height="50" relative="1" as="geometry">
            <mxPoint x="42" y="120" as="sourcePoint" />
            <mxPoint x="132" y="120" as="targetPoint" />
          </mxGeometry>
        </mxCell>
        <mxCell id="DuBBFkumvUSzoL5AuAYB-8" value="" style="endArrow=none;dashed=1;html=1;rounded=0;" edge="1" parent="1">
          <mxGeometry width="50" height="50" relative="1" as="geometry">
            <mxPoint x="133" y="541" as="sourcePoint" />
            <mxPoint x="133" y="101" as="targetPoint" />
          </mxGeometry>
        </mxCell>
        <mxCell id="DuBBFkumvUSzoL5AuAYB-9" value="メニュー&lt;span style=&quot;background-color: transparent; color: light-dark(rgb(0, 0, 0), rgb(255, 255, 255));&quot;&gt;画面&lt;/span&gt;&lt;div&gt;&lt;span style=&quot;background-color: transparent; color: light-dark(rgb(0, 0, 0), rgb(255, 255, 255));&quot;&gt;を押下&lt;/span&gt;&lt;/div&gt;" style="text;html=1;align=center;verticalAlign=middle;whiteSpace=wrap;rounded=0;" vertex="1" parent="1">
          <mxGeometry x="24" y="92" width="111" height="30" as="geometry" />
        </mxCell>
        <mxCell id="DuBBFkumvUSzoL5AuAYB-10" value="図書予約制御" style="ellipse;shape=umlControl;whiteSpace=wrap;html=1;fillColor=#FFCCCC;" vertex="1" parent="1">
          <mxGeometry x="180" y="12" width="60" height="70" as="geometry" />
        </mxCell>
        <mxCell id="DuBBFkumvUSzoL5AuAYB-11" value="" style="endArrow=none;dashed=1;html=1;rounded=0;" edge="1" parent="1">
          <mxGeometry width="50" height="50" relative="1" as="geometry">
            <mxPoint x="210" y="1150" as="sourcePoint" />
            <mxPoint x="210.0000000000001" y="100.99999999999994" as="targetPoint" />
          </mxGeometry>
        </mxCell>
        <mxCell id="DuBBFkumvUSzoL5AuAYB-12" value="" style="endArrow=classic;html=1;rounded=0;" edge="1" parent="1">
          <mxGeometry width="50" height="50" relative="1" as="geometry">
            <mxPoint x="135" y="137" as="sourcePoint" />
            <mxPoint x="215" y="136.5" as="targetPoint" />
          </mxGeometry>
        </mxCell>
        <mxCell id="DuBBFkumvUSzoL5AuAYB-13" value="メニュー&lt;span style=&quot;background-color: transparent; color: light-dark(rgb(0, 0, 0), rgb(255, 255, 255));&quot;&gt;画面&lt;/span&gt;&lt;div&gt;&lt;span style=&quot;background-color: transparent; color: light-dark(rgb(0, 0, 0), rgb(255, 255, 255));&quot;&gt;を押下&lt;/span&gt;&lt;/div&gt;" style="text;html=1;align=center;verticalAlign=middle;whiteSpace=wrap;rounded=0;" vertex="1" parent="1">
          <mxGeometry x="116" y="108" width="120" height="30" as="geometry" />
        </mxCell>
        <mxCell id="DuBBFkumvUSzoL5AuAYB-15" value="図書予約画面" style="shape=umlBoundary;whiteSpace=wrap;html=1;fillColor=#E6FFCC;" vertex="1" parent="1">
          <mxGeometry x="254" y="23" width="70" height="60" as="geometry" />
        </mxCell>
        <mxCell id="DuBBFkumvUSzoL5AuAYB-16" value="" style="endArrow=none;dashed=1;html=1;rounded=0;" edge="1" parent="1">
          <mxGeometry width="50" height="50" relative="1" as="geometry">
            <mxPoint x="295" y="1140" as="sourcePoint" />
            <mxPoint x="295" y="104.00153846153847" as="targetPoint" />
          </mxGeometry>
        </mxCell>
        <mxCell id="DuBBFkumvUSzoL5AuAYB-17" value="" style="endArrow=classic;html=1;rounded=0;" edge="1" parent="1">
          <mxGeometry width="50" height="50" relative="1" as="geometry">
            <mxPoint x="215" y="160" as="sourcePoint" />
            <mxPoint x="300" y="160" as="targetPoint" />
          </mxGeometry>
        </mxCell>
        <mxCell id="DuBBFkumvUSzoL5AuAYB-19" value="画面を表示" style="text;html=1;align=center;verticalAlign=middle;whiteSpace=wrap;rounded=0;" vertex="1" parent="1">
          <mxGeometry x="218" y="130" width="70" height="30" as="geometry" />
        </mxCell>
        <mxCell id="DuBBFkumvUSzoL5AuAYB-20" value="" style="endArrow=classic;html=1;rounded=0;" edge="1" parent="1">
          <mxGeometry width="50" height="50" relative="1" as="geometry">
            <mxPoint x="300" y="206" as="sourcePoint" />
            <mxPoint x="214" y="206" as="targetPoint" />
          </mxGeometry>
        </mxCell>
        <mxCell id="DuBBFkumvUSzoL5AuAYB-21" value="会員番号を入力（確定）" style="text;html=1;align=center;verticalAlign=middle;whiteSpace=wrap;rounded=0;" vertex="1" parent="1">
          <mxGeometry x="225" y="173" width="70" height="30" as="geometry" />
        </mxCell>
        <mxCell id="DuBBFkumvUSzoL5AuAYB-22" value="会員" style="ellipse;shape=umlEntity;whiteSpace=wrap;html=1;fillColor=#CCE5FF;" vertex="1" parent="1">
          <mxGeometry x="341" y="22.5" width="60" height="57" as="geometry" />
        </mxCell>
        <mxCell id="DuBBFkumvUSzoL5AuAYB-23" value="" style="endArrow=none;dashed=1;html=1;rounded=0;" edge="1" parent="1">
          <mxGeometry width="50" height="50" relative="1" as="geometry">
            <mxPoint x="370" y="1140" as="sourcePoint" />
            <mxPoint x="371" y="98" as="targetPoint" />
          </mxGeometry>
        </mxCell>
        <mxCell id="DuBBFkumvUSzoL5AuAYB-24" value="" style="endArrow=classic;html=1;rounded=0;" edge="1" parent="1">
          <mxGeometry width="50" height="50" relative="1" as="geometry">
            <mxPoint x="220" y="289" as="sourcePoint" />
            <mxPoint x="375" y="289" as="targetPoint" />
          </mxGeometry>
        </mxCell>
        <mxCell id="DuBBFkumvUSzoL5AuAYB-29" value="会員情報&lt;div&gt;照合&lt;/div&gt;" style="text;html=1;align=center;verticalAlign=middle;whiteSpace=wrap;rounded=0;" vertex="1" parent="1">
          <mxGeometry x="288" y="260" width="86" height="30" as="geometry" />
        </mxCell>
        <mxCell id="DuBBFkumvUSzoL5AuAYB-30" value="氏名・会員種&lt;div&gt;を表示&lt;/div&gt;" style="text;html=1;align=center;verticalAlign=middle;whiteSpace=wrap;rounded=0;" vertex="1" parent="1">
          <mxGeometry x="195" y="380" width="110" height="30" as="geometry" />
        </mxCell>
        <mxCell id="DuBBFkumvUSzoL5AuAYB-31" value="" style="endArrow=classic;html=1;rounded=0;" edge="1" parent="1">
          <mxGeometry width="50" height="50" relative="1" as="geometry">
            <mxPoint x="216" y="413" as="sourcePoint" />
            <mxPoint x="371" y="413" as="targetPoint" />
          </mxGeometry>
        </mxCell>
        <mxCell id="DuBBFkumvUSzoL5AuAYB-32" value="" style="endArrow=classic;html=1;rounded=0;" edge="1" parent="1">
          <mxGeometry width="50" height="50" relative="1" as="geometry">
            <mxPoint x="369" y="457.4200000000001" as="sourcePoint" />
            <mxPoint x="215" y="457" as="targetPoint" />
          </mxGeometry>
        </mxCell>
        <mxCell id="DuBBFkumvUSzoL5AuAYB-33" value="書名を入力&lt;div&gt;（検索）&lt;/div&gt;" style="text;html=1;align=center;verticalAlign=middle;whiteSpace=wrap;rounded=0;" vertex="1" parent="1">
          <mxGeometry x="286" y="426" width="110" height="30" as="geometry" />
        </mxCell>
        <mxCell id="DuBBFkumvUSzoL5AuAYB-34" value="図書" style="ellipse;shape=umlEntity;whiteSpace=wrap;html=1;fillColor=#CCE5FF;" vertex="1" parent="1">
          <mxGeometry x="429.5" y="25" width="60" height="57" as="geometry" />
        </mxCell>
        <mxCell id="DuBBFkumvUSzoL5AuAYB-35" value="" style="endArrow=none;dashed=1;html=1;rounded=0;" edge="1" parent="1">
          <mxGeometry width="50" height="50" relative="1" as="geometry">
            <mxPoint x="459" y="1140" as="sourcePoint" />
            <mxPoint x="459.08" y="93" as="targetPoint" />
          </mxGeometry>
        </mxCell>
        <mxCell id="DuBBFkumvUSzoL5AuAYB-36" value="" style="endArrow=classic;html=1;rounded=0;" edge="1" parent="1">
          <mxGeometry width="50" height="50" relative="1" as="geometry">
            <mxPoint x="212" y="643.1700000000001" as="sourcePoint" />
            <mxPoint x="456" y="643" as="targetPoint" />
          </mxGeometry>
        </mxCell>
        <mxCell id="DuBBFkumvUSzoL5AuAYB-37" value="図書情報検索" style="text;html=1;align=center;verticalAlign=middle;whiteSpace=wrap;rounded=0;" vertex="1" parent="1">
          <mxGeometry x="367" y="611" width="87" height="30" as="geometry" />
        </mxCell>
        <mxCell id="DuBBFkumvUSzoL5AuAYB-39" value="検索結果を表示" style="text;html=1;align=center;verticalAlign=middle;whiteSpace=wrap;rounded=0;" vertex="1" parent="1">
          <mxGeometry x="457" y="690" width="87" height="30" as="geometry" />
        </mxCell>
        <mxCell id="DuBBFkumvUSzoL5AuAYB-40" value="図書一覧画面" style="shape=umlBoundary;whiteSpace=wrap;html=1;fillColor=#E6FFCC;" vertex="1" parent="1">
          <mxGeometry x="524" y="25" width="70" height="60" as="geometry" />
        </mxCell>
        <mxCell id="DuBBFkumvUSzoL5AuAYB-41" value="" style="endArrow=none;dashed=1;html=1;rounded=0;" edge="1" parent="1">
          <mxGeometry width="50" height="50" relative="1" as="geometry">
            <mxPoint x="567" y="1140" as="sourcePoint" />
            <mxPoint x="566.58" y="90" as="targetPoint" />
          </mxGeometry>
        </mxCell>
        <mxCell id="DuBBFkumvUSzoL5AuAYB-42" value="" style="endArrow=classic;html=1;rounded=0;" edge="1" parent="1">
          <mxGeometry width="50" height="50" relative="1" as="geometry">
            <mxPoint x="210" y="720" as="sourcePoint" />
            <mxPoint x="562" y="720" as="targetPoint" />
          </mxGeometry>
        </mxCell>
        <mxCell id="DuBBFkumvUSzoL5AuAYB-43" value="" style="endArrow=classic;html=1;rounded=0;" edge="1" parent="1">
          <mxGeometry width="50" height="50" relative="1" as="geometry">
            <mxPoint x="660" y="830" as="sourcePoint" />
            <mxPoint x="211" y="831" as="targetPoint" />
          </mxGeometry>
        </mxCell>
        <mxCell id="DuBBFkumvUSzoL5AuAYB-44" value="図書予約を押下" style="text;html=1;align=center;verticalAlign=middle;whiteSpace=wrap;rounded=0;" vertex="1" parent="1">
          <mxGeometry x="238" y="800" width="87" height="30" as="geometry" />
        </mxCell>
        <mxCell id="DuBBFkumvUSzoL5AuAYB-46" value="予約情報" style="ellipse;shape=umlEntity;whiteSpace=wrap;html=1;fillColor=#CCE5FF;" vertex="1" parent="1">
          <mxGeometry x="627.5" y="23.5" width="60" height="57" as="geometry" />
        </mxCell>
        <mxCell id="DuBBFkumvUSzoL5AuAYB-47" value="予約完了画面" style="shape=umlBoundary;whiteSpace=wrap;html=1;fillColor=#E6FFCC;" vertex="1" parent="1">
          <mxGeometry x="705" y="22.5" width="70" height="60" as="geometry" />
        </mxCell>
        <mxCell id="DuBBFkumvUSzoL5AuAYB-48" value="" style="endArrow=none;dashed=1;html=1;rounded=0;" edge="1" parent="1">
          <mxGeometry width="50" height="50" relative="1" as="geometry">
            <mxPoint x="657" y="1140" as="sourcePoint" />
            <mxPoint x="656.91" y="92" as="targetPoint" />
          </mxGeometry>
        </mxCell>
        <mxCell id="DuBBFkumvUSzoL5AuAYB-49" value="" style="endArrow=none;dashed=1;html=1;rounded=0;" edge="1" parent="1">
          <mxGeometry width="50" height="50" relative="1" as="geometry">
            <mxPoint x="747" y="1130" as="sourcePoint" />
            <mxPoint x="747" y="92" as="targetPoint" />
          </mxGeometry>
        </mxCell>
        <mxCell id="DuBBFkumvUSzoL5AuAYB-50" value="" style="endArrow=classic;html=1;rounded=0;" edge="1" parent="1">
          <mxGeometry width="50" height="50" relative="1" as="geometry">
            <mxPoint x="210" y="890.0000000000001" as="sourcePoint" />
            <mxPoint x="653" y="890.0000000000001" as="targetPoint" />
          </mxGeometry>
        </mxCell>
        <mxCell id="DuBBFkumvUSzoL5AuAYB-51" value="" style="endArrow=classic;html=1;rounded=0;" edge="1" parent="1">
          <mxGeometry width="50" height="50" relative="1" as="geometry">
            <mxPoint x="210" y="909.41" as="sourcePoint" />
            <mxPoint x="744" y="909.41" as="targetPoint" />
          </mxGeometry>
        </mxCell>
        <mxCell id="DuBBFkumvUSzoL5AuAYB-52" value="予約情報保存" style="text;html=1;align=center;verticalAlign=middle;whiteSpace=wrap;rounded=0;" vertex="1" parent="1">
          <mxGeometry x="560" y="860" width="87" height="30" as="geometry" />
        </mxCell>
        <mxCell id="DuBBFkumvUSzoL5AuAYB-55" value="画面を表示" style="text;strokeColor=none;align=center;fillColor=none;html=1;verticalAlign=middle;whiteSpace=wrap;rounded=0;" vertex="1" parent="1">
          <mxGeometry x="668" y="880" width="70" height="30" as="geometry" />
        </mxCell>
        <mxCell id="DuBBFkumvUSzoL5AuAYB-56" value="" style="endArrow=classic;html=1;rounded=0;" edge="1" parent="1">
          <mxGeometry width="50" height="50" relative="1" as="geometry">
            <mxPoint x="464.5" y="520" as="sourcePoint" />
            <mxPoint x="216.5" y="520" as="targetPoint" />
          </mxGeometry>
        </mxCell>
        <mxCell id="DuBBFkumvUSzoL5AuAYB-57" value="検索結果を返す" style="text;html=1;align=center;verticalAlign=middle;whiteSpace=wrap;rounded=0;" vertex="1" parent="1">
          <mxGeometry x="360" y="490" width="87" height="30" as="geometry" />
        </mxCell>
        <mxCell id="DuBBFkumvUSzoL5AuAYB-63" value="[会員番号が有効な場合]" style="text;html=1;align=center;verticalAlign=middle;whiteSpace=wrap;rounded=0;" vertex="1" parent="1">
          <mxGeometry x="168" y="259" width="143" height="30" as="geometry" />
        </mxCell>
        <mxCell id="DuBBFkumvUSzoL5AuAYB-64" value="alt" style="shape=umlFrame;whiteSpace=wrap;html=1;pointerEvents=0;" vertex="1" parent="1">
          <mxGeometry x="170" y="230" width="710" height="140" as="geometry" />
        </mxCell>
        <mxCell id="DuBBFkumvUSzoL5AuAYB-67" value="[会員番号が無効な場合]" style="text;html=1;align=center;verticalAlign=middle;whiteSpace=wrap;rounded=0;" vertex="1" parent="1">
          <mxGeometry x="169" y="294" width="143" height="30" as="geometry" />
        </mxCell>
        <mxCell id="DuBBFkumvUSzoL5AuAYB-68" value="" style="endArrow=classic;html=1;rounded=0;" edge="1" parent="1">
          <mxGeometry width="50" height="50" relative="1" as="geometry">
            <mxPoint x="215" y="330" as="sourcePoint" />
            <mxPoint x="860" y="330" as="targetPoint" />
          </mxGeometry>
        </mxCell>
        <mxCell id="DuBBFkumvUSzoL5AuAYB-69" value="メッセージ" style="shape=umlBoundary;whiteSpace=wrap;html=1;fillColor=#E6FFCC;" vertex="1" parent="1">
          <mxGeometry x="810" y="22" width="80" height="60" as="geometry" />
        </mxCell>
        <mxCell id="DuBBFkumvUSzoL5AuAYB-70" value="" style="endArrow=none;dashed=1;html=1;rounded=0;" edge="1" parent="1">
          <mxGeometry width="50" height="50" relative="1" as="geometry">
            <mxPoint x="860" y="1120" as="sourcePoint" />
            <mxPoint x="859" y="89" as="targetPoint" />
          </mxGeometry>
        </mxCell>
        <mxCell id="DuBBFkumvUSzoL5AuAYB-71" value="会員番号を確認&lt;div&gt;してください&lt;/div&gt;" style="text;html=1;align=center;verticalAlign=middle;whiteSpace=wrap;rounded=0;" vertex="1" parent="1">
          <mxGeometry x="741" y="300" width="126" height="30" as="geometry" />
        </mxCell>
        <mxCell id="DuBBFkumvUSzoL5AuAYB-72" value="" style="endArrow=classic;html=1;rounded=0;" edge="1" parent="1">
          <mxGeometry width="50" height="50" relative="1" as="geometry">
            <mxPoint x="858" y="360" as="sourcePoint" />
            <mxPoint x="300" y="360" as="targetPoint" />
          </mxGeometry>
        </mxCell>
        <mxCell id="DuBBFkumvUSzoL5AuAYB-73" value="再入力を促す" style="text;html=1;align=center;verticalAlign=middle;whiteSpace=wrap;rounded=0;" vertex="1" parent="1">
          <mxGeometry x="295" y="330" width="126" height="30" as="geometry" />
        </mxCell>
        <mxCell id="DuBBFkumvUSzoL5AuAYB-74" value="alt" style="shape=umlFrame;whiteSpace=wrap;html=1;pointerEvents=0;" vertex="1" parent="1">
          <mxGeometry x="168" y="465" width="710" height="140" as="geometry" />
        </mxCell>
        <mxCell id="DuBBFkumvUSzoL5AuAYB-75" value="[書名が有効な場合]" style="text;html=1;align=center;verticalAlign=middle;whiteSpace=wrap;rounded=0;" vertex="1" parent="1">
          <mxGeometry x="210" y="480" width="143" height="30" as="geometry" />
        </mxCell>
        <mxCell id="DuBBFkumvUSzoL5AuAYB-76" value="[書名が見入力の場合]" style="text;html=1;align=center;verticalAlign=middle;whiteSpace=wrap;rounded=0;" vertex="1" parent="1">
          <mxGeometry x="217" y="530" width="143" height="30" as="geometry" />
        </mxCell>
        <mxCell id="DuBBFkumvUSzoL5AuAYB-77" value="" style="endArrow=classic;html=1;rounded=0;" edge="1" parent="1">
          <mxGeometry width="50" height="50" relative="1" as="geometry">
            <mxPoint x="216.5" y="571" as="sourcePoint" />
            <mxPoint x="861.5" y="571" as="targetPoint" />
          </mxGeometry>
        </mxCell>
        <mxCell id="DuBBFkumvUSzoL5AuAYB-78" value="書名を入力してください" style="text;html=1;align=center;verticalAlign=middle;whiteSpace=wrap;rounded=0;" vertex="1" parent="1">
          <mxGeometry x="738" y="540" width="126" height="30" as="geometry" />
        </mxCell>
        <mxCell id="DuBBFkumvUSzoL5AuAYB-79" value="" style="endArrow=classic;html=1;rounded=0;" edge="1" parent="1">
          <mxGeometry width="50" height="50" relative="1" as="geometry">
            <mxPoint x="861.5" y="599" as="sourcePoint" />
            <mxPoint x="303.5" y="599" as="targetPoint" />
          </mxGeometry>
        </mxCell>
        <mxCell id="DuBBFkumvUSzoL5AuAYB-80" value="再入力を促す" style="text;html=1;align=center;verticalAlign=middle;whiteSpace=wrap;rounded=0;" vertex="1" parent="1">
          <mxGeometry x="299.5" y="575" width="126" height="30" as="geometry" />
        </mxCell>
        <mxCell id="DuBBFkumvUSzoL5AuAYB-84" value="alt" style="shape=umlFrame;whiteSpace=wrap;html=1;pointerEvents=0;" vertex="1" parent="1">
          <mxGeometry x="168" y="660" width="710" height="140" as="geometry" />
        </mxCell>
        <mxCell id="DuBBFkumvUSzoL5AuAYB-86" value="[図書が見つかった場合]" style="text;html=1;align=center;verticalAlign=middle;whiteSpace=wrap;rounded=0;" vertex="1" parent="1">
          <mxGeometry x="224" y="690" width="143" height="30" as="geometry" />
        </mxCell>
        <mxCell id="DuBBFkumvUSzoL5AuAYB-87" value="[図書が見つからなかった場合]" style="text;html=1;align=center;verticalAlign=middle;whiteSpace=wrap;rounded=0;" vertex="1" parent="1">
          <mxGeometry x="205" y="730" width="168" height="30" as="geometry" />
        </mxCell>
        <mxCell id="DuBBFkumvUSzoL5AuAYB-88" value="" style="endArrow=classic;html=1;rounded=0;" edge="1" parent="1">
          <mxGeometry width="50" height="50" relative="1" as="geometry">
            <mxPoint x="210" y="770" as="sourcePoint" />
            <mxPoint x="855" y="770" as="targetPoint" />
          </mxGeometry>
        </mxCell>
        <mxCell id="DuBBFkumvUSzoL5AuAYB-89" value="該当する図書が見つかりません" style="text;html=1;align=center;verticalAlign=middle;whiteSpace=wrap;rounded=0;" vertex="1" parent="1">
          <mxGeometry x="760" y="730" width="126" height="30" as="geometry" />
        </mxCell>
        <mxCell id="DuBBFkumvUSzoL5AuAYB-90" value="" style="endArrow=classic;html=1;rounded=0;" edge="1" parent="1">
          <mxGeometry width="50" height="50" relative="1" as="geometry">
            <mxPoint x="857.5" y="790" as="sourcePoint" />
            <mxPoint x="299.5" y="790" as="targetPoint" />
          </mxGeometry>
        </mxCell>
        <mxCell id="DuBBFkumvUSzoL5AuAYB-91" value="再入力を促す" style="text;html=1;align=center;verticalAlign=middle;whiteSpace=wrap;rounded=0;" vertex="1" parent="1">
          <mxGeometry x="313" y="770" width="126" height="30" as="geometry" />
        </mxCell>
        <mxCell id="DuBBFkumvUSzoL5AuAYB-92" value="alt" style="shape=umlFrame;whiteSpace=wrap;html=1;pointerEvents=0;" vertex="1" parent="1">
          <mxGeometry x="169" y="840" width="710" height="290" as="geometry" />
        </mxCell>
        <mxCell id="DuBBFkumvUSzoL5AuAYB-93" value="[有効な予約の場合]" style="text;html=1;align=center;verticalAlign=middle;whiteSpace=wrap;rounded=0;" vertex="1" parent="1">
          <mxGeometry x="198" y="860" width="143" height="30" as="geometry" />
        </mxCell>
        <mxCell id="DuBBFkumvUSzoL5AuAYB-95" value="[学生が雑誌を予約する場合]" style="text;html=1;align=center;verticalAlign=middle;whiteSpace=wrap;rounded=0;" vertex="1" parent="1">
          <mxGeometry x="205" y="930" width="165" height="30" as="geometry" />
        </mxCell>
        <mxCell id="DuBBFkumvUSzoL5AuAYB-96" value="" style="endArrow=classic;html=1;rounded=0;" edge="1" parent="1">
          <mxGeometry width="50" height="50" relative="1" as="geometry">
            <mxPoint x="210" y="970" as="sourcePoint" />
            <mxPoint x="855" y="970" as="targetPoint" />
          </mxGeometry>
        </mxCell>
        <mxCell id="DuBBFkumvUSzoL5AuAYB-97" value="学生は雑誌を予約できません" style="text;html=1;align=center;verticalAlign=middle;whiteSpace=wrap;rounded=0;" vertex="1" parent="1">
          <mxGeometry x="730" y="930" width="126" height="30" as="geometry" />
        </mxCell>
        <mxCell id="DuBBFkumvUSzoL5AuAYB-98" value="" style="endArrow=classic;html=1;rounded=0;" edge="1" parent="1">
          <mxGeometry width="50" height="50" relative="1" as="geometry">
            <mxPoint x="854.5" y="996" as="sourcePoint" />
            <mxPoint x="296.5" y="996" as="targetPoint" />
          </mxGeometry>
        </mxCell>
        <mxCell id="DuBBFkumvUSzoL5AuAYB-99" value="再入力を促す" style="text;html=1;align=center;verticalAlign=middle;whiteSpace=wrap;rounded=0;" vertex="1" parent="1">
          <mxGeometry x="319" y="975" width="126" height="30" as="geometry" />
        </mxCell>
        <mxCell id="DuBBFkumvUSzoL5AuAYB-100" value="[図書に未貸し出しの本がある場合]" style="text;html=1;align=center;verticalAlign=middle;whiteSpace=wrap;rounded=0;" vertex="1" parent="1">
          <mxGeometry x="208" y="1000" width="192" height="30" as="geometry" />
        </mxCell>
        <mxCell id="DuBBFkumvUSzoL5AuAYB-101" value="" style="endArrow=classic;html=1;rounded=0;" edge="1" parent="1">
          <mxGeometry width="50" height="50" relative="1" as="geometry">
            <mxPoint x="210" y="1040" as="sourcePoint" />
            <mxPoint x="855" y="1040" as="targetPoint" />
          </mxGeometry>
        </mxCell>
        <mxCell id="DuBBFkumvUSzoL5AuAYB-102" value="在庫がありません" style="text;html=1;align=center;verticalAlign=middle;whiteSpace=wrap;rounded=0;" vertex="1" parent="1">
          <mxGeometry x="730" y="1020" width="126" height="30" as="geometry" />
        </mxCell>
        <mxCell id="DuBBFkumvUSzoL5AuAYB-103" value="" style="endArrow=classic;html=1;rounded=0;" edge="1" parent="1">
          <mxGeometry width="50" height="50" relative="1" as="geometry">
            <mxPoint x="853" y="1080" as="sourcePoint" />
            <mxPoint x="295" y="1080" as="targetPoint" />
          </mxGeometry>
        </mxCell>
        <mxCell id="DuBBFkumvUSzoL5AuAYB-104" value="再入力を促す" style="text;html=1;align=center;verticalAlign=middle;whiteSpace=wrap;rounded=0;" vertex="1" parent="1">
          <mxGeometry x="319" y="1050" width="126" height="30" as="geometry" />
        </mxCell>
      </root>
    </mxGraphModel>
  </diagram>
</mxfile>
